<svg width="11" height="12" viewBox="0 0 11 12" fill="none" xmlns="http://www.w3.org/2000/svg">
<path id="Vector" d="M3.02521 0C3.44354 0 3.78151 0.335156 3.78151 0.75V1.5H6.80672V0.75C6.80672 0.335156 7.1447 0 7.56303 0C7.98136 0 8.31933 0.335156 8.31933 0.75V1.5H9.45378C10.0801 1.5 10.5882 2.00391 10.5882 2.625V3.75H0V2.625C0 2.00391 0.508141 1.5 1.13445 1.5H2.26891V0.75C2.26891 0.335156 2.60688 0 3.02521 0ZM0 4.5H10.5882V10.875C10.5882 11.4961 10.0801 12 9.45378 12H1.13445C0.508141 12 0 11.4961 0 10.875V4.5ZM1.51261 6.375V7.125C1.51261 7.33125 1.68277 7.5 1.89076 7.5H2.64706C2.85504 7.5 3.02521 7.33125 3.02521 7.125V6.375C3.02521 6.16875 2.85504 6 2.64706 6H1.89076C1.68277 6 1.51261 6.16875 1.51261 6.375ZM4.53782 6.375V7.125C4.53782 7.33125 4.70798 7.5 4.91597 7.5H5.67227C5.88025 7.5 6.05042 7.33125 6.05042 7.125V6.375C6.05042 6.16875 5.88025 6 5.67227 6H4.91597C4.70798 6 4.53782 6.16875 4.53782 6.375ZM7.94118 6C7.73319 6 7.56303 6.16875 7.56303 6.375V7.125C7.56303 7.33125 7.73319 7.5 7.94118 7.5H8.69748C8.90546 7.5 9.07563 7.33125 9.07563 7.125V6.375C9.07563 6.16875 8.90546 6 8.69748 6H7.94118ZM1.51261 9.375V10.125C1.51261 10.3313 1.68277 10.5 1.89076 10.5H2.64706C2.85504 10.5 3.02521 10.3313 3.02521 10.125V9.375C3.02521 9.16875 2.85504 9 2.64706 9H1.89076C1.68277 9 1.51261 9.16875 1.51261 9.375ZM4.91597 9C4.70798 9 4.53782 9.16875 4.53782 9.375V10.125C4.53782 10.3313 4.70798 10.5 4.91597 10.5H5.67227C5.88025 10.5 6.05042 10.3313 6.05042 10.125V9.375C6.05042 9.16875 5.88025 9 5.67227 9H4.91597ZM7.56303 9.375V10.125C7.56303 10.3313 7.73319 10.5 7.94118 10.5H8.69748C8.90546 10.5 9.07563 10.3313 9.07563 10.125V9.375C9.07563 9.16875 8.90546 9 8.69748 9H7.94118C7.73319 9 7.56303 9.16875 7.56303 9.375Z" fill="#A3A3A3"/>
</svg>
