<svg width="14" height="14" viewBox="0 0 14 14" fill="none" xmlns="http://www.w3.org/2000/svg">
<path id="Vector" d="M0.414337 2.39091C-0.132282 1.84429 -0.132282 0.956583 0.414337 0.409964C0.960956 -0.136655 1.84867 -0.136655 2.39528 0.409964L7 5.01905L11.6091 0.414337C12.1557 -0.132282 13.0434 -0.132282 13.59 0.414337C14.1367 0.960956 14.1367 1.84866 13.59 2.39528L8.98095 7L13.5857 11.6091C14.1323 12.1557 14.1323 13.0434 13.5857 13.59C13.039 14.1367 12.1513 14.1367 11.6047 13.59L7 8.98095L2.39091 13.5857C1.84429 14.1323 0.956583 14.1323 0.409964 13.5857C-0.136655 13.039 -0.136655 12.1513 0.409964 11.6047L5.01905 7L0.414337 2.39091Z" fill="#535353"/>
</svg>
