<svg width="40" height="35" viewBox="0 0 40 35" fill="none" xmlns="http://www.w3.org/2000/svg">
<path id="Vector" d="M0 5C0 2.24219 2.23356 0 4.98077 0H34.8654C37.6126 0 39.8462 2.24219 39.8462 5V30C39.8462 32.7578 37.6126 35 34.8654 35H4.98077C2.23356 35 0 32.7578 0 30V5ZM3.73558 26.25V28.75C3.73558 29.4375 4.29591 30 4.98077 30H7.47115C8.15601 30 8.71635 29.4375 8.71635 28.75V26.25C8.71635 25.5625 8.15601 25 7.47115 25H4.98077C4.29591 25 3.73558 25.5625 3.73558 26.25ZM32.375 25C31.6901 25 31.1298 25.5625 31.1298 26.25V28.75C31.1298 29.4375 31.6901 30 32.375 30H34.8654C35.5502 30 36.1106 29.4375 36.1106 28.75V26.25C36.1106 25.5625 35.5502 25 34.8654 25H32.375ZM3.73558 16.25V18.75C3.73558 19.4375 4.29591 20 4.98077 20H7.47115C8.15601 20 8.71635 19.4375 8.71635 18.75V16.25C8.71635 15.5625 8.15601 15 7.47115 15H4.98077C4.29591 15 3.73558 15.5625 3.73558 16.25ZM32.375 15C31.6901 15 31.1298 15.5625 31.1298 16.25V18.75C31.1298 19.4375 31.6901 20 32.375 20H34.8654C35.5502 20 36.1106 19.4375 36.1106 18.75V16.25C36.1106 15.5625 35.5502 15 34.8654 15H32.375ZM3.73558 6.25V8.75C3.73558 9.4375 4.29591 10 4.98077 10H7.47115C8.15601 10 8.71635 9.4375 8.71635 8.75V6.25C8.71635 5.5625 8.15601 5 7.47115 5H4.98077C4.29591 5 3.73558 5.5625 3.73558 6.25ZM32.375 5C31.6901 5 31.1298 5.5625 31.1298 6.25V8.75C31.1298 9.4375 31.6901 10 32.375 10H34.8654C35.5502 10 36.1106 9.4375 36.1106 8.75V6.25C36.1106 5.5625 35.5502 5 34.8654 5H32.375ZM12.4519 7.5V12.5C12.4519 13.8828 13.5648 15 14.9423 15H24.9038C26.2813 15 27.3942 13.8828 27.3942 12.5V7.5C27.3942 6.11719 26.2813 5 24.9038 5H14.9423C13.5648 5 12.4519 6.11719 12.4519 7.5ZM14.9423 20C13.5648 20 12.4519 21.1172 12.4519 22.5V27.5C12.4519 28.8828 13.5648 30 14.9423 30H24.9038C26.2813 30 27.3942 28.8828 27.3942 27.5V22.5C27.3942 21.1172 26.2813 20 24.9038 20H14.9423Z" fill="#00388B"/>
</svg>
