<svg width="13" height="12" viewBox="0 0 13 12" fill="none" xmlns="http://www.w3.org/2000/svg">
<path id="Vector" d="M0 10C0 10.4425 0.363086 10.8 0.8125 10.8H2.20137C2.51367 11.5075 3.22969 12 4.0625 12C4.89531 12 5.61133 11.5075 5.92363 10.8H12.1875C12.6369 10.8 13 10.4425 13 10C13 9.5575 12.6369 9.2 12.1875 9.2H5.92363C5.61133 8.4925 4.89531 8 4.0625 8C3.22969 8 2.51367 8.4925 2.20137 9.2H0.8125C0.363086 9.2 0 9.5575 0 10ZM3.25 10C3.25 9.78783 3.3356 9.58434 3.48798 9.43431C3.64035 9.28429 3.84701 9.2 4.0625 9.2C4.27799 9.2 4.48465 9.28429 4.63702 9.43431C4.7894 9.58434 4.875 9.78783 4.875 10C4.875 10.2122 4.7894 10.4157 4.63702 10.5657C4.48465 10.7157 4.27799 10.8 4.0625 10.8C3.84701 10.8 3.64035 10.7157 3.48798 10.5657C3.3356 10.4157 3.25 10.2122 3.25 10ZM8.125 6C8.125 5.78783 8.2106 5.58434 8.36298 5.43431C8.51535 5.28429 8.72201 5.2 8.9375 5.2C9.15299 5.2 9.35965 5.28429 9.51202 5.43431C9.6644 5.58434 9.75 5.78783 9.75 6C9.75 6.21217 9.6644 6.41566 9.51202 6.56569C9.35965 6.71571 9.15299 6.8 8.9375 6.8C8.72201 6.8 8.51535 6.71571 8.36298 6.56569C8.2106 6.41566 8.125 6.21217 8.125 6ZM8.9375 4C8.10469 4 7.38867 4.4925 7.07637 5.2H0.8125C0.363086 5.2 0 5.5575 0 6C0 6.4425 0.363086 6.8 0.8125 6.8H7.07637C7.38867 7.5075 8.10469 8 8.9375 8C9.77031 8 10.4863 7.5075 10.7986 6.8H12.1875C12.6369 6.8 13 6.4425 13 6C13 5.5575 12.6369 5.2 12.1875 5.2H10.7986C10.4863 4.4925 9.77031 4 8.9375 4ZM4.875 2.8C4.65951 2.8 4.45285 2.71571 4.30048 2.56569C4.1481 2.41566 4.0625 2.21217 4.0625 2C4.0625 1.78783 4.1481 1.58434 4.30048 1.43431C4.45285 1.28429 4.65951 1.2 4.875 1.2C5.09049 1.2 5.29715 1.28429 5.44952 1.43431C5.6019 1.58434 5.6875 1.78783 5.6875 2C5.6875 2.21217 5.6019 2.41566 5.44952 2.56569C5.29715 2.71571 5.09049 2.8 4.875 2.8ZM6.73613 1.2C6.42383 0.4925 5.70781 0 4.875 0C4.04219 0 3.32617 0.4925 3.01387 1.2H0.8125C0.363086 1.2 0 1.5575 0 2C0 2.4425 0.363086 2.8 0.8125 2.8H3.01387C3.32617 3.5075 4.04219 4 4.875 4C5.70781 4 6.42383 3.5075 6.73613 2.8H12.1875C12.6369 2.8 13 2.4425 13 2C13 1.5575 12.6369 1.2 12.1875 1.2H6.73613Z" fill="#393939"/>
</svg>
