<svg xmlns="http://www.w3.org/2000/svg" width="16" height="16" viewBox="0 0 16 16" fill="none">
  <path d="M3.2 9.6H4.78L9.82 4.62C9.9 4.54 9.94 4.44 9.94 4.32C9.94 4.2 9.9 4.1 9.82 4.02L8.72 3.02C8.65333 2.95333 8.57 2.92 8.47 2.92C8.37 2.92 8.28667 2.95333 8.22 3.02L3.2 8.12V9.6ZM6.5 9.6H12.8V8.4H7.7L6.5 9.6ZM0 16V1.2C0 0.88 0.12 0.6 0.36 0.36C0.6 0.12 0.88 0 1.2 0H14.8C15.12 0 15.4 0.12 15.64 0.36C15.88 0.6 16 0.88 16 1.2V11.6C16 11.92 15.88 12.2 15.64 12.44C15.4 12.68 15.12 12.8 14.8 12.8H3.2L0 16ZM2.68 11.6H14.8V1.2H1.2V13.2L2.68 11.6Z" fill="#00388B"/>
</svg>