<svg width="45" height="35" viewBox="0 0 45 35" fill="none" xmlns="http://www.w3.org/2000/svg">
<path id="Vector" d="M4.41538 4.375V24.0625H39.7385V4.375H4.41538ZM0 4.375C0 1.96191 1.98002 0 4.41538 0H39.7385C42.1738 0 44.1538 1.96191 44.1538 4.375V24.0625C44.1538 26.4756 42.1738 28.4375 39.7385 28.4375H4.41538C1.98002 28.4375 0 26.4756 0 24.0625V4.375ZM8.83077 30.625H35.3231C36.5442 30.625 37.5308 31.6025 37.5308 32.8125C37.5308 34.0225 36.5442 35 35.3231 35H8.83077C7.60964 35 6.62308 34.0225 6.62308 32.8125C6.62308 31.6025 7.60964 30.625 8.83077 30.625Z" fill="#00388B"/>
</svg>
