<svg width="26" height="25" viewBox="0 0 26 25" fill="none" xmlns="http://www.w3.org/2000/svg">
<path id="Vector" d="M14.4145 0.878808C14.1535 0.341759 13.6021 0 12.9965 0C12.3908 0 11.8443 0.341759 11.5784 0.878808L8.41249 7.33805L1.34203 8.37309C0.751184 8.46097 0.258812 8.87108 0.0766349 9.43254C-0.105543 9.994 0.0421688 10.614 0.465608 11.029L5.59612 16.0627L4.38489 23.1761C4.28641 23.762 4.5326 24.3576 5.02005 24.7043C5.50749 25.0509 6.1525 25.0948 6.68426 24.8166L13.0014 21.4722L19.3185 24.8166C19.8503 25.0948 20.4953 25.0558 20.9827 24.7043C21.4702 24.3527 21.7164 23.762 21.6179 23.1761L20.4017 16.0627L25.5322 11.029C25.9557 10.614 26.1083 9.994 25.9212 9.43254C25.7341 8.87108 25.2467 8.46097 24.6558 8.37309L17.5804 7.33805L14.4145 0.878808Z" fill="#FFCE6F"/>
</svg>
