<svg  viewBox="0 0 28 18" fill="none" xmlns="http://www.w3.org/2000/svg">
<path d="M3.11111 0C1.39514 0 0 1.34531 0 3V6C0 6.4125 0.359722 6.73594 0.763194 6.87188C1.67708 7.17656 2.33333 8.01562 2.33333 9C2.33333 9.98438 1.67708 10.8234 0.763194 11.1281C0.359722 11.2641 0 11.5875 0 12V15C0 16.6547 1.39514 18 3.11111 18H24.8889C26.6049 18 28 16.6547 28 15V12C28 11.5875 27.6403 11.2641 27.2368 11.1281C26.3229 10.8234 25.6667 9.98438 25.6667 9C25.6667 8.01562 26.3229 7.17656 27.2368 6.87188C27.6403 6.73594 28 6.4125 28 6V3C28 1.34531 26.6049 0 24.8889 0H3.11111ZM6.22222 5.25V12.75C6.22222 13.1625 6.57222 13.5 7 13.5H21C21.4278 13.5 21.7778 13.1625 21.7778 12.75V5.25C21.7778 4.8375 21.4278 4.5 21 4.5H7C6.57222 4.5 6.22222 4.8375 6.22222 5.25ZM4.66667 4.5C4.66667 3.67031 5.36181 3 6.22222 3H21.7778C22.6382 3 23.3333 3.67031 23.3333 4.5V13.5C23.3333 14.3297 22.6382 15 21.7778 15H6.22222C5.36181 15 4.66667 14.3297 4.66667 13.5V4.5Z" fill="#00388B"/>
</svg>
