<svg width="512" height="512" viewBox="0 0 512 512" fill="none" xmlns="http://www.w3.org/2000/svg">
<rect width="512" height="512" fill="#00388B"/>
<path d="M147.111 166C129.951 166 116 179.453 116 196V226C116 230.125 119.597 233.359 123.632 234.719C132.771 237.766 139.333 246.156 139.333 256C139.333 265.844 132.771 274.234 123.632 277.281C119.597 278.641 116 281.875 116 286V316C116 332.547 129.951 346 147.111 346H364.889C382.049 346 396 332.547 396 316V286C396 281.875 392.403 278.641 388.368 277.281C379.229 274.234 372.667 265.844 372.667 256C372.667 246.156 379.229 237.766 388.368 234.719C392.403 233.359 396 230.125 396 226V196C396 179.453 382.049 166 364.889 166H147.111ZM178.222 218.5V293.5C178.222 297.625 181.722 301 186 301H326C330.278 301 333.778 297.625 333.778 293.5V218.5C333.778 214.375 330.278 211 326 211H186C181.722 211 178.222 214.375 178.222 218.5ZM162.667 211C162.667 202.703 169.618 196 178.222 196H333.778C342.382 196 349.333 202.703 349.333 211V301C349.333 309.297 342.382 316 333.778 316H178.222C169.618 316 162.667 309.297 162.667 301V211Z" fill="white"/>
</svg>
