<svg width="512" height="512" viewBox="0 0 512 512" fill="none" xmlns="http://www.w3.org/2000/svg">
<g clip-path="url(#clip0_162_7)">
<rect x="1" y="1" width="510" height="510" rx="49" fill="#00388B" stroke="#6C6C6C" stroke-width="2"/>
<path d="M129.222 148C109.243 148 93 163.621 93 182.833V217.667C93 222.456 97.1882 226.212 101.886 227.79C112.526 231.328 120.167 241.07 120.167 252.5C120.167 263.93 112.526 273.672 101.886 277.21C97.1882 278.788 93 282.544 93 287.333V322.167C93 341.379 109.243 357 129.222 357H382.778C402.757 357 419 341.379 419 322.167V287.333C419 282.544 414.812 278.788 410.114 277.21C399.474 273.672 391.833 263.93 391.833 252.5C391.833 241.07 399.474 231.328 410.114 227.79C414.812 226.212 419 222.456 419 217.667V182.833C419 163.621 402.757 148 382.778 148H129.222ZM165.444 208.958V296.042C165.444 300.831 169.519 304.75 174.5 304.75H337.5C342.481 304.75 346.556 300.831 346.556 296.042V208.958C346.556 204.169 342.481 200.25 337.5 200.25H174.5C169.519 200.25 165.444 204.169 165.444 208.958ZM147.333 200.25C147.333 190.616 155.427 182.833 165.444 182.833H346.556C356.573 182.833 364.667 190.616 364.667 200.25V304.75C364.667 314.384 356.573 322.167 346.556 322.167H165.444C155.427 322.167 147.333 314.384 147.333 304.75V200.25Z" fill="white"/>
</g>
<defs>
<clipPath id="clip0_162_7">
<rect width="512" height="512" fill="white"/>
</clipPath>
</defs>
</svg>
