<svg xmlns="http://www.w3.org/2000/svg" width="18" height="16" viewBox="0 0 18 16" fill="none">
  <path d="M16.7854 8.9875C17.3101 8.9875 17.7731 8.55 17.7731 7.98438C17.804 7.70312 17.6805 7.45312 17.4336 7.23438L15.8038 5.78125V2C15.8038 1.44687 15.3624 1 14.8161 1H13.8283C13.282 1 12.8406 1.44687 12.8406 2V3.14687L9.55328 0.21875C9.36808 0.0625 9.12115 0 8.90508 0C8.68901 0 8.44208 0.03125 8.22601 0.25L0.308668 7.23438C0.0926005 7.45312 0 7.70312 0 7.98438C0 8.54688 0.432136 8.9875 0.987738 8.9875H1.97548V11.1656C1.97239 11.1937 1.97239 11.2219 1.97239 11.2531V14.75C1.97239 15.4406 2.52491 16 3.20706 16H3.70093C3.73797 16 3.77501 15.9969 3.81205 15.9937C3.85835 15.9969 3.90465 16 3.95095 16H4.93869H5.6795C6.36165 16 6.91417 15.4406 6.91417 14.75V14V12C6.91417 11.4469 7.35556 11 7.90191 11H9.87738C10.4237 11 10.8651 11.4469 10.8651 12V14V14.75C10.8651 15.4406 11.4176 16 12.0998 16H12.8406H13.8438C13.887 16 13.9302 16 13.9734 15.9969C14.0074 16 14.0413 16 14.0753 16H14.5691C15.2513 16 15.8038 15.4406 15.8038 14.75V14.2437C15.8131 14.1625 15.8192 14.0781 15.8192 13.9906L15.7976 8.98438H16.7854V8.9875Z" fill="#00388B"/>
</svg>